{
  "accessors": [
    {
      "bufferView": 2,
      "componentType": 5126,
      "count": 643,
      "max": [
        0.20586222410202026,
        0.12007701396942139,
        0.5000000596046448
      ],
      "min": [
        -0.6283684372901917,
        -0.10987250506877899,
        -0.5000000596046448
      ],
      "type": "VEC3"
    },
    {
      "bufferView": 2,
      "byteOffset": 7716,
      "componentType": 5126,
      "count": 643,
      "max": [
        1.0,
        1.0,
        1.0
      ],
      "min": [
        -1.0,
        -1.0,
        -1.0
      ],
      "type": "VEC3"
    },
    {
      "bufferView": 1,
      "componentType": 5126,
      "count": 643,
      "max": [
        0.875,
        1.0
      ],
      "min": [
        0.125,
        0.0
      ],
      "type": "VEC2"
    },
    {
      "bufferView": 0,
      "componentType": 5125,
      "count": 3600,
      "type": "SCALAR"
    },
    {
      "bufferView": 2,
      "byteOffset": 15432,
      "componentType": 5126,
      "count": 643,
      "max": [
        0.20586170256137848,
        0.12007713317871094,
        0.5000000596046448
      ],
      "min": [
        -0.6283684968948364,
        -0.10987256467342377,
        -0.5000000596046448
      ],
      "type": "VEC3"
    },
    {
      "bufferView": 2,
      "byteOffset": 23148,
      "componentType": 5126,
      "count": 643,
      "max": [
        1.0,
        1.0,
        1.0
      ],
      "min": [
        -1.0,
        -1.0,
        -1.0
      ],
      "type": "VEC3"
    },
    {
      "bufferView": 1,
      "byteOffset": 5144,
      "componentType": 5126,
      "count": 643,
      "max": [
        0.875,
        1.0
      ],
      "min": [
        0.125,
        0.0
      ],
      "type": "VEC2"
    },
    {
      "bufferView": 0,
      "byteOffset": 14400,
      "componentType": 5125,
      "count": 3600,
      "type": "SCALAR"
    },
    {
      "bufferView": 2,
      "byteOffset": 30864,
      "componentType": 5126,
      "count": 643,
      "max": [
        0.20586219429969788,
        0.12007671594619751,
        0.5000000596046448
      ],
      "min": [
        -0.6283684372901917,
        -0.10987241566181183,
        -0.5000000596046448
      ],
      "type": "VEC3"
    },
    {
      "bufferView": 2,
      "byteOffset": 38580,
      "componentType": 5126,
      "count": 643,
      "max": [
        1.0,
        1.0,
        1.0
      ],
      "min": [
        -1.0,
        -1.0,
        -1.0
      ],
      "type": "VEC3"
    },
    {
      "bufferView": 1,
      "byteOffset": 10288,
      "componentType": 5126,
      "count": 643,
      "max": [
        0.875,
        1.0
      ],
      "min": [
        0.125,
        0.0
      ],
      "type": "VEC2"
    },
    {
      "bufferView": 0,
      "byteOffset": 28800,
      "componentType": 5125,
      "count": 3600,
      "type": "SCALAR"
    },
    {
      "bufferView": 2,
      "byteOffset": 46296,
      "componentType": 5126,
      "count": 88,
      "max": [
        0.5,
        -0.005058169364929199,
        0.32708537578582764
      ],
      "min": [
        -0.5,
        -0.07668542861938477,
        -0.2810441255569458
      ],
      "type": "VEC3"
    },
    {
      "bufferView": 2,
      "byteOffset": 47352,
      "componentType": 5126,
      "count": 88,
      "max": [
        1.0,
        0.9998328685760498,
        1.0
      ],
      "min": [
        -1.0,
        -0.9996239542961121,
        -1.0
      ],
      "type": "VEC3"
    },
    {
      "bufferView": 1,
      "byteOffset": 15432,
      "componentType": 5126,
      "count": 88,
      "max": [
        0.875,
        1.0
      ],
      "min": [
        0.125,
        0.0
      ],
      "type": "VEC2"
    },
    {
      "bufferView": 0,
      "byteOffset": 43200,
      "componentType": 5125,
      "count": 276,
      "type": "SCALAR"
    },
    {
      "bufferView": 2,
      "byteOffset": 48408,
      "componentType": 5126,
      "count": 369,
      "max": [
        0.8356204628944397,
        0.38781672716140747,
        -0.17148494720458984
      ],
      "min": [
        -0.7656698226928711,
        -0.5318859219551086,
        -0.3755410313606262
      ],
      "type": "VEC3"
    },
    {
      "bufferView": 2,
      "byteOffset": 52836,
      "componentType": 5126,
      "count": 369,
      "max": [
        0.9985143542289734,
        0.9958401918411255,
        0.9999898672103882
      ],
      "min": [
        -0.9997708201408386,
        -0.9504441618919373,
        -0.9999984502792358
      ],
      "type": "VEC3"
    },
    {
      "bufferView": 1,
      "byteOffset": 16136,
      "componentType": 5126,
      "count": 369,
      "max": [
        0.875,
        1.0
      ],
      "min": [
        0.125,
        0.0
      ],
      "type": "VEC2"
    },
    {
      "bufferView": 0,
      "byteOffset": 44304,
      "componentType": 5125,
      "count": 1968,
      "type": "SCALAR"
    },
    {
      "bufferView": 2,
      "byteOffset": 57264,
      "componentType": 5126,
      "count": 371,
      "max": [
        0.3035920262336731,
        0.646206259727478,
        -0.12294653803110123
      ],
      "min": [
        -0.3735920190811157,
        -0.4492640495300293,
        -0.4161665737628937
      ],
      "type": "VEC3"
    },
    {
      "bufferView": 2,
      "byteOffset": 61716,
      "componentType": 5126,
      "count": 371,
      "max": [
        0.9969719648361206,
        0.9964333772659302,
        0.9999794363975525
      ],
      "min": [
        -0.9974611401557922,
        -0.8328076004981995,
        -0.9981940388679504
      ],
      "type": "VEC3"
    },
    {
      "bufferView": 1,
      "byteOffset": 19088,
      "componentType": 5126,
      "count": 371,
      "max": [
        0.6016846895217896,
        1.0
      ],
      "min": [
        0.125,
        0.0
      ],
      "type": "VEC2"
    },
    {
      "bufferView": 0,
      "byteOffset": 52176,
      "componentType": 5125,
      "count": 1968,
      "type": "SCALAR"
    },
    {
      "bufferView": 2,
      "byteOffset": 66168,
      "componentType": 5126,
      "count": 7931,
      "max": [
        2.754836082458496,
        7.13116455078125,
        4.180926322937012
      ],
      "min": [
        -6.520054340362549,
        -1.8292789459228516,
        -0.465285986661911
      ],
      "type": "VEC3"
    },
    {
      "bufferView": 2,
      "byteOffset": 161340,
      "componentType": 5126,
      "count": 7931,
      "max": [
        1.0,
        0.9974194169044495,
        0.9999887943267822
      ],
      "min": [
        -1.0,
        -0.9997375011444092,
        -0.999947190284729
      ],
      "type": "VEC3"
    },
    {
      "bufferView": 1,
      "byteOffset": 22056,
      "componentType": 5126,
      "count": 7931,
      "max": [
        0.875,
        1.0
      ],
      "min": [
        0.125,
        0.0
      ],
      "type": "VEC2"
    },
    {
      "bufferView": 0,
      "byteOffset": 60048,
      "componentType": 5125,
      "count": 46608,
      "type": "SCALAR"
    },
    {
      "bufferView": 2,
      "byteOffset": 256512,
      "componentType": 5126,
      "count": 977,
      "max": [
        0.3146028518676758,
        2.40004563331604,
        0.1931370496749878
      ],
      "min": [
        -0.3472786545753479,
        -2.498835802078247,
        -0.832696795463562
      ],
      "type": "VEC3"
    },
    {
      "bufferView": 2,
      "byteOffset": 268236,
      "componentType": 5126,
      "count": 977,
      "max": [
        0.9999701380729675,
        0.9980382323265076,
        0.9999549984931946
      ],
      "min": [
        -0.9999679923057556,
        -1.0,
        -0.9978589415550232
      ],
      "type": "VEC3"
    },
    {
      "bufferView": 1,
      "byteOffset": 85504,
      "componentType": 5126,
      "count": 977,
      "max": [
        0.613245964050293,
        1.0
      ],
      "min": [
        0.125,
        0.0
      ],
      "type": "VEC2"
    },
    {
      "bufferView": 0,
      "byteOffset": 246480,
      "componentType": 5125,
      "count": 5472,
      "type": "SCALAR"
    },
    {
      "bufferView": 2,
      "byteOffset": 279960,
      "componentType": 5126,
      "count": 2477,
      "max": [
        1.5537587404251099,
        1.0225310325622559,
        0.41864895820617676
      ],
      "min": [
        -1.5108675956726074,
        -4.388174057006836,
        -0.4758906364440918
      ],
      "type": "VEC3"
    },
    {
      "bufferView": 2,
      "byteOffset": 309684,
      "componentType": 5126,
      "count": 2477,
      "max": [
        0.9997783303260803,
        1.0,
        1.0
      ],
      "min": [
        -0.9997782111167908,
        -1.0,
        -1.0
      ],
      "type": "VEC3"
    },
    {
      "bufferView": 1,
      "byteOffset": 93320,
      "componentType": 5126,
      "count": 2477,
      "max": [
        0.625,
        1.0
      ],
      "min": [
        0.125,
        0.0
      ],
      "type": "VEC2"
    },
    {
      "bufferView": 0,
      "byteOffset": 268368,
      "componentType": 5125,
      "count": 14064,
      "type": "SCALAR"
    },
    {
      "bufferView": 2,
      "byteOffset": 339408,
      "componentType": 5126,
      "count": 643,
      "max": [
        0.20586219429969788,
        0.12007671594619751,
        0.5000000596046448
      ],
      "min": [
        -0.6283684372901917,
        -0.10987241566181183,
        -0.5000000596046448
      ],
      "type": "VEC3"
    },
    {
      "bufferView": 2,
      "byteOffset": 347124,
      "componentType": 5126,
      "count": 643,
      "max": [
        1.0,
        1.0,
        1.0
      ],
      "min": [
        -1.0,
        -1.0,
        -1.0
      ],
      "type": "VEC3"
    },
    {
      "bufferView": 1,
      "byteOffset": 113136,
      "componentType": 5126,
      "count": 643,
      "max": [
        0.875,
        1.0
      ],
      "min": [
        0.125,
        0.0
      ],
      "type": "VEC2"
    },
    {
      "bufferView": 0,
      "byteOffset": 324624,
      "componentType": 5125,
      "count": 3600,
      "type": "SCALAR"
    },
    {
      "bufferView": 3,
      "componentType": 5126,
      "count": 237,
      "max": [
        9.083333015441895
      ],
      "min": [
        1.2083333730697632
      ],
      "type": "SCALAR"
    },
    {
      "bufferView": 4,
      "componentType": 5126,
      "count": 237,
      "max": [
        8.329848396496388e-17,
        0.99998939037323,
        8.329848396496388e-17,
        1.0
      ],
      "min": [
        -8.659465312219988e-17,
        -0.864165723323822,
        -8.659465312219988e-17,
        -0.4869219958782196
      ],
      "type": "VEC4"
    }
  ],
  "animations": [
    {
      "channels": [
        {
          "sampler": 0,
          "target": {
            "node": 4,
            "path": "rotation"
          }
        }
      ],
      "name": "Take 001",
      "samplers": [
        {
          "input": 40,
          "interpolation": "LINEAR",
          "output": 41
        }
      ]
    }
  ],
  "asset": {
    "extras": {
      "author": "geormanavila (https://sketchfab.com/geormanavila)",
      "license": "CC-BY-4.0 (http://creativecommons.org/licenses/by/4.0/)",
      "source": "https://sketchfab.com/3d-models/violin-32d89ae4c9f54a28a75d24575102fa82",
      "title": "Violin"
    },
    "generator": "Sketchfab-16.72.0",
    "version": "2.0"
  },
  "bufferViews": [
    {
      "buffer": 0,
      "byteLength": 339024,
      "name": "floatBufferViews",
      "target": 34963
    },
    {
      "buffer": 0,
      "byteLength": 118280,
      "byteOffset": 339024,
      "byteStride": 8,
      "name": "floatBufferViews",
      "target": 34962
    },
    {
      "buffer": 0,
      "byteLength": 354840,
      "byteOffset": 457304,
      "byteStride": 12,
      "name": "floatBufferViews",
      "target": 34962
    },
    {
      "buffer": 0,
      "byteLength": 948,
      "byteOffset": 812144,
      "name": "floatBufferViews"
    },
    {
      "buffer": 0,
      "byteLength": 3792,
      "byteOffset": 813092,
      "byteStride": 16,
      "name": "floatBufferViews"
    }
  ],
  "buffers": [
    {
      "byteLength": 816884,
      "uri": "scene.bin"
    }
  ],
  "materials": [
    {
      "doubleSided": true,
      "name": "lambert8",
      "pbrMetallicRoughness": {
        "baseColorFactor": [
          0.5,
          0.487671,
          0.1795,
          1.0
        ],
        "metallicFactor": 0.0,
        "roughnessFactor": 0.6
      }
    },
    {
      "doubleSided": true,
      "name": "lambert10",
      "pbrMetallicRoughness": {
        "baseColorFactor": [
          0.245,
          0.410308,
          0.5,
          1.0
        ],
        "metallicFactor": 0.0,
        "roughnessFactor": 0.6
      }
    },
    {
      "doubleSided": true,
      "name": "lambert6",
      "pbrMetallicRoughness": {
        "baseColorFactor": [
          0.5,
          0.2725,
          0.47375,
          1.0
        ],
        "metallicFactor": 0.0,
        "roughnessFactor": 0.6
      }
    },
    {
      "doubleSided": true,
      "name": "lambert5",
      "pbrMetallicRoughness": {
        "baseColorFactor": [
          0.577923,
          0.596154,
          0.122212,
          1.0
        ],
        "metallicFactor": 0.0,
        "roughnessFactor": 0.6
      }
    },
    {
      "doubleSided": true,
      "name": "lambert4",
      "pbrMetallicRoughness": {
        "baseColorFactor": [
          0.168564,
          0.487179,
          0.24209,
          1.0
        ],
        "metallicFactor": 0.0,
        "roughnessFactor": 0.6
      }
    },
    {
      "doubleSided": true,
      "name": "lambert3",
      "pbrMetallicRoughness": {
        "baseColorFactor": [
          0.752,
          0.072944,
          0.072944,
          1.0
        ],
        "metallicFactor": 0.0,
        "roughnessFactor": 0.6
      }
    },
    {
      "doubleSided": true,
      "name": "lambert2",
      "pbrMetallicRoughness": {
        "baseColorFactor": [
          0.0729584,
          0.219582,
          0.708333,
          1.0
        ],
        "metallicFactor": 0.0,
        "roughnessFactor": 0.6
      }
    }
  ],
  "meshes": [
    {
      "name": "Clavijas_lambert8_0",
      "primitives": [
        {
          "attributes": {
            "NORMAL": 1,
            "POSITION": 0,
            "TEXCOORD_0": 2
          },
          "indices": 3,
          "material": 0,
          "mode": 4
        }
      ]
    },
    {
      "name": "Clavijas1_lambert8_0",
      "primitives": [
        {
          "attributes": {
            "NORMAL": 5,
            "POSITION": 4,
            "TEXCOORD_0": 6
          },
          "indices": 7,
          "material": 0,
          "mode": 4
        }
      ]
    },
    {
      "name": "Clavijas3_lambert8_0",
      "primitives": [
        {
          "attributes": {
            "NORMAL": 9,
            "POSITION": 8,
            "TEXCOORD_0": 10
          },
          "indices": 11,
          "material": 0,
          "mode": 4
        }
      ]
    },
    {
      "name": "pCube1_lambert10_0",
      "primitives": [
        {
          "attributes": {
            "NORMAL": 13,
            "POSITION": 12,
            "TEXCOORD_0": 14
          },
          "indices": 15,
          "material": 1,
          "mode": 4
        }
      ]
    },
    {
      "name": "Posadera_lambert6_0",
      "primitives": [
        {
          "attributes": {
            "NORMAL": 17,
            "POSITION": 16,
            "TEXCOORD_0": 18
          },
          "indices": 19,
          "material": 2,
          "mode": 4
        }
      ]
    },
    {
      "name": "Triangulito_lambert5_0",
      "primitives": [
        {
          "attributes": {
            "NORMAL": 21,
            "POSITION": 20,
            "TEXCOORD_0": 22
          },
          "indices": 23,
          "material": 3,
          "mode": 4
        }
      ]
    },
    {
      "name": "Churo_lambert4_0",
      "primitives": [
        {
          "attributes": {
            "NORMAL": 25,
            "POSITION": 24,
            "TEXCOORD_0": 26
          },
          "indices": 27,
          "material": 4,
          "mode": 4
        }
      ]
    },
    {
      "name": "Alma_lambert3_0",
      "primitives": [
        {
          "attributes": {
            "NORMAL": 29,
            "POSITION": 28,
            "TEXCOORD_0": 30
          },
          "indices": 31,
          "material": 5,
          "mode": 4
        }
      ]
    },
    {
      "name": "Cuerpo_lambert2_0",
      "primitives": [
        {
          "attributes": {
            "NORMAL": 33,
            "POSITION": 32,
            "TEXCOORD_0": 34
          },
          "indices": 35,
          "material": 6,
          "mode": 4
        }
      ]
    },
    {
      "name": "Clavijas4_lambert8_0",
      "primitives": [
        {
          "attributes": {
            "NORMAL": 37,
            "POSITION": 36,
            "TEXCOORD_0": 38
          },
          "indices": 39,
          "material": 0,
          "mode": 4
        }
      ]
    }
  ],
  "nodes": [
    {
      "children": [
        1
      ],
      "matrix": [
        1.0,
        0.0,
        0.0,
        0.0,
        0.0,
        2.220446049250313e-16,
        -1.0,
        0.0,
        0.0,
        1.0,
        2.220446049250313e-16,
        0.0,
        0.0,
        0.0,
        0.0,
        1.0
      ],
      "name": "Sketchfab_model"
    },
    {
      "children": [
        2
      ],
      "matrix": [
        0.009999999776482582,
        0.0,
        0.0,
        0.0,
        0.0,
        0.0,
        0.009999999776482582,
        0.0,
        0.0,
        -0.009999999776482582,
        0.0,
        0.0,
        0.0,
        0.0,
        0.0,
        1.0
      ],
      "name": "7ef0142c4de14dc49724e12708229eac.fbx"
    },
    {
      "children": [
        3
      ],
      "name": "Object_2"
    },
    {
      "children": [
        4
      ],
      "name": "RootNode"
    },
    {
      "children": [
        5,
        7,
        9,
        11,
        13,
        15,
        17,
        19,
        21,
        23
      ],
      "name": "Violin",
      "rotation": [
        0.0,
        -0.6251818537712097,
        0.0,
        0.7804791331291199
      ]
    },
    {
      "children": [
        6
      ],
      "name": "Clavijas",
      "rotation": [
        -0.5000008940696716,
        -0.0,
        0.0,
        0.866024911403656
      ],
      "scale": [
        1.0,
        1.0,
        0.07777780294418335
      ],
      "translation": [
        0.3725578784942627,
        3.8752009868621826,
        0.28894859552383423
      ]
    },
    {
      "mesh": 0,
      "name": "Clavijas_lambert8_0"
    },
    {
      "children": [
        8
      ],
      "name": "Clavijas1",
      "rotation": [
        -0.38250258564949036,
        -0.0,
        0.0,
        0.923954427242279
      ],
      "scale": [
        1.0,
        1.0,
        0.07777780294418335
      ],
      "translation": [
        0.3725578784942627,
        3.453620195388794,
        -0.040263328701257706
      ]
    },
    {
      "mesh": 1,
      "name": "Clavijas1_lambert8_0"
    },
    {
      "children": [
        10
      ],
      "name": "Clavijas3",
      "rotation": [
        2.527310402696132e-17,
        0.866024911403656,
        0.5000008940696716,
        7.869026077243096e-17
      ],
      "scale": [
        1.0,
        1.0,
        0.07777780294418335
      ],
      "translation": [
        -0.4075443148612976,
        3.667311191558838,
        0.11593728512525558
      ]
    },
    {
      "mesh": 2,
      "name": "Clavijas3_lambert8_0"
    },
    {
      "children": [
        12
      ],
      "name": "pCube1",
      "rotation": [
        0.0,
        -2.0438196950641922e-17,
        0.0,
        1.0
      ],
      "scale": [
        0.6790122985839844,
        1.0,
        1.0
      ],
      "translation": [
        -0.07609822601079941,
        -1.826623558998108,
        -0.714270830154419
      ]
    },
    {
      "mesh": 3,
      "name": "pCube1_lambert10_0"
    },
    {
      "children": [
        14
      ],
      "name": "Posadera",
      "translation": [
        -0.4972156584262848,
        -3.9307503700256348,
        -0.28541457653045654
      ]
    },
    {
      "mesh": 4,
      "name": "Posadera_lambert6_0"
    },
    {
      "children": [
        16
      ],
      "name": "Triangulito",
      "translation": [
        -1.3877787807814457e-17,
        -3.212470054626465,
        -0.3995909094810486
      ]
    },
    {
      "mesh": 5,
      "name": "Triangulito_lambert5_0"
    },
    {
      "children": [
        18
      ],
      "name": "Churo",
      "scale": [
        0.07415925711393356,
        0.19136349856853485,
        0.19099999964237213
      ],
      "translation": [
        0.12179334461688995,
        3.114739179611206,
        -0.3301403522491455
      ]
    },
    {
      "mesh": 6,
      "name": "Churo_lambert4_0"
    },
    {
      "children": [
        20
      ],
      "name": "Alma",
      "translation": [
        0.0,
        1.465448021888733,
        0.0
      ]
    },
    {
      "mesh": 7,
      "name": "Alma_lambert3_0"
    },
    {
      "children": [
        22
      ],
      "name": "Cuerpo"
    },
    {
      "mesh": 8,
      "name": "Cuerpo_lambert2_0"
    },
    {
      "children": [
        24
      ],
      "name": "Clavijas4",
      "rotation": [
        2.527310402696132e-17,
        0.866024911403656,
        0.5000008940696716,
        7.869026077243096e-17
      ],
      "scale": [
        1.0,
        1.0,
        0.07777780294418335
      ],
      "translation": [
        -0.34896621108055115,
        3.178135633468628,
        -0.14593440294265747
      ]
    },
    {
      "mesh": 9,
      "name": "Clavijas4_lambert8_0"
    }
  ],
  "scene": 0,
  "scenes": [
    {
      "name": "Sketchfab_Scene",
      "nodes": [
        0
      ]
    }
  ]
}
